<?xml version="1.0" encoding="UTF-8"?>
<!DOCTYPE svg PUBLIC "-//W3C//DTD SVG 1.0//EN" "http://www.w3.org/TR/2001/REC-SVG-20010904/DTD/svg10.dtd">
<!-- Creator: CorelDRAW 2018 -->
<svg xmlns="http://www.w3.org/2000/svg" xml:space="preserve" width="190.5mm" height="251.216mm" version="1.0" style="shape-rendering:geometricPrecision; text-rendering:geometricPrecision; image-rendering:optimizeQuality; fill-rule:evenodd; clip-rule:evenodd"
viewBox="0 0 3609.01 4759.26"
 xmlns:xlink="http://www.w3.org/1999/xlink"
 xmlns:dc="http://purl.org/dc/elements/1.1/"
 xmlns:cc="http://creativecommons.org/ns#"
 xmlns:rdf="http://www.w3.org/1999/02/22-rdf-syntax-ns#"
 xmlns:svg="http://www.w3.org/2000/svg">
 <defs>
  <style type="text/css">
   <![CDATA[
    .fil4 {fill:black}
    .fil5 {fill:#0076FF}
    .fil3 {fill:#00A700}
    .fil0 {fill:#C58F00}
    .fil2 {fill:#D40000}
    .fil1 {fill:#FFE000}
    .fil6 {fill:#332C2B;fill-rule:nonzero}
   ]]>
  </style>
 </defs>
 <g id="Layer_x0020_1">
  <metadata id="CorelCorpID_0Corel-Layer"/>
  <g id="_819494552">
   <g id="layer1">
    <g id="g3050">
     <path id="path3182" class="fil0" d="M1803.84 0c-170.75,9.11 -264.75,52.97 -539.07,185.27 -183.64,88.56 -253.19,118.94 -331.04,144.53 -62.07,20.41 -132.82,35.86 -164.17,35.86 -21.27,0 -23.5,1.31 -29.46,17.09 -11.91,31.53 -42.28,84.54 -70.85,123.73 -48.24,66.17 -81.83,102.53 -270.3,292.12 -191.47,192.61 -229.08,233.61 -282.59,308.2 -84.08,117.19 -112.78,205.65 -115.95,357.51 -2.26,108.58 3.68,170.22 41.1,424.8 42.5,289.12 46.72,394.93 19.71,496.95 -4.13,15.59 -5.03,22.35 -3.13,22.99 10.29,3.43 58.07,51.37 86.27,86.56 58.26,72.71 104.23,153.22 221.34,387.41 254.99,509.88 321.53,559.8 895.56,671.75 323.37,63.07 428.03,93.96 520.45,153.7 25.36,16.39 21.5,16.2 42.84,1.89 92.97,-62.34 197.21,-92.85 559.29,-163.88 380.04,-74.56 503.93,-127.36 622.94,-265.43 73.23,-84.96 122.37,-167.09 238.08,-398.03 125.1,-249.7 161.95,-314.29 222.36,-389.88 23.27,-29.11 71.16,-77.39 81.39,-82.05 3.58,-1.63 5.04,-3.83 4.22,-6.4 -33.81,-106.54 -29.4,-225.87 20.95,-565.62 18.91,-127.59 32.09,-253.57 35.21,-340.93 -0.65,-18.95 -1.45,-83.57 -1.45,-88.45 0,-53.4 -23.77,-142.24 -54.55,-203.74 -54.59,-109.07 -134.1,-203.98 -341.65,-407.85 -176.85,-173.7 -239.45,-242.81 -292.27,-322.67 -18.69,-28.25 -46.98,-81.5 -51.72,-97.33 -3.18,-10.61 -7.19,-12.44 -27.35,-12.44 -26.21,0 -92.69,-13.25 -141.4,-28.22 -82.65,-25.4 -160.64,-58.84 -346.82,-148.68 -281.89,-136.02 -345.01,-173.92 -547.51,-188.69 -1.03,0.08 -1,0 -0.44,-0.07l0 -0z"/>
     <path id="path3176" class="fil1" d="M1795.1 138.86c3.19,-0.04 6.41,0 9.68,0 96.88,0.1 163.18,19.7 370.1,109.33 43.53,18.85 98.31,42.52 121.69,52.59 216.99,93.46 360.33,132.38 487.13,132.39l31.5 0 5.24 17.68c16.99,57.75 54.35,131.31 101.69,200.11 51.6,74.98 101.65,133.68 248.99,291.98 260.87,280.27 298.01,350.37 297.79,562.13 -0.08,80.44 -1.44,100.37 -17.31,252.55 -34.63,331.95 -31.94,464.6 12.15,595l10.33 30.48 -28.37 21.17c-115.61,86.39 -196.45,199.39 -367.4,513.25 -186.58,342.55 -260.44,397.75 -654.36,489.24 -367.09,85.26 -487.34,130.48 -616.9,231.82 -1.42,1.11 -8.62,-2.93 -17.46,-9.82 -113.62,-88.63 -249.17,-139.11 -583.95,-217.34 -419.53,-98.04 -483.24,-145.12 -677.56,-500.45 -119.86,-219.17 -177.46,-311.03 -246.44,-393.37 -37.28,-44.5 -97.64,-100.75 -135.66,-126.42l-10.91 -7.35 9.02 -26.33c44.39,-130.4 48.12,-264.03 16.07,-570.78 -18.11,-173.33 -19.21,-188.84 -19.42,-276.99 -0.53,-218.28 34.35,-284.31 301.14,-570.27 163.67,-175.44 224.83,-249.95 278.81,-339.84 28.05,-46.72 58.89,-114.32 69.32,-151.88l4.07 -14.55 31.64 0c135.3,0 278.91,-41.02 533.32,-152.39 270.68,-118.49 337.27,-140.74 436.07,-141.91l0 -0z"/>
     <path id="path3020" class="fil2" d="M1801.34 490.47c-755.25,0 -1367.5,612.28 -1367.5,1367.53 0,755.25 612.25,1367.46 1367.5,1367.46 755.25,0 1367.5,-612.21 1367.5,-1367.46 0,-755.25 -612.25,-1367.53 -1367.5,-1367.53zm0 162.23c665.64,0 1205.25,539.66 1205.25,1205.3 0,665.64 -539.61,1205.23 -1205.25,1205.23 -665.64,0 -1205.25,-539.59 -1205.25,-1205.23 0,-665.64 539.61,-1205.3 1205.25,-1205.3z"/>
     <path id="path3170" class="fil3" d="M1804.35 763.4l-23.86 25.17c-82.56,87.07 -141.94,204.68 -161.77,320.27 -25.79,150.35 15.99,306.01 120.75,449.53l19.42 26.62 -6.11 5.67c-16.5,15.32 -69.42,50.8 -102.2,68.52 -23.12,12.5 -18.83,15.03 -43.57,-25.75 -69.26,-114.13 -159.3,-201.45 -253.86,-246.15 -137.78,-65.13 -313.38,-64.03 -471.13,2.98 -24.43,10.38 -49.03,22.39 -49.03,23.93 0,3.55 41.89,73.76 61.83,103.65 169.78,254.6 411.7,341.03 681.86,243.53 12.8,-4.62 24.03,-8.44 24.95,-8.44 6.8,-0 56.91,126.5 81.1,204.69 40.42,130.63 62.98,243.21 82.41,411.56l1.16 9.89 -47.57 0 -47.57 0 -2.69 -9.89c-70.03,-262.55 -320.06,-444.13 -699.31,-507.86 -59.22,-9.95 -166.27,-20.81 -169.84,-17.24 -1.6,1.6 11.88,55.1 19.86,78.78 46.41,137.71 162.17,282.94 297.79,373.59 110.49,73.85 265.39,120.27 458.55,137.48 23.68,2.11 43.36,4.1 43.72,4.44 1.91,1.8 7.42,54.04 7.49,71.07 0.13,32.36 -2.15,30.26 32.88,30.26l29.97 0 0 -20.66c0,-16.94 -2.16,-46.6 -5.31,-73.47 -0.51,-4.37 1.05,-4.5 42.55,-3.86 23.68,0.37 43.34,0.94 43.72,1.31 0.38,0.37 1.4,22.26 2.18,48.66l1.38 48.01 30.7 0 30.77 0 1.24 -47.86c0.7,-26.33 1.66,-48.23 2.11,-48.66 0.45,-0.43 20.06,-1.16 43.57,-1.6l42.77 -0.8 -1.45 13.97c-0.8,7.68 -2.16,29.94 -2.98,49.46l-1.53 35.5 30.33 0 30.26 0 1.53 -14.26c0.82,-7.87 1.5,-19.65 1.53,-26.19 0.05,-12.04 5.63,-59.15 7.2,-60.66 0.47,-0.45 15.01,-2.03 32.3,-3.49 146.11,-12.4 264.06,-39.34 370.1,-84.45 194.85,-82.9 371.87,-290.96 414.18,-486.84l4.44 -20.66 -25.97 1.6c-197.41,11.88 -396.65,67.59 -541.61,151.44 -155.65,90.03 -254.33,209.1 -299.39,361.37l-6.33 21.53 -47.43 0 -47.35 0 1.24 -11.06c20.41,-179.14 44.78,-296.65 90.92,-438.18 17.83,-54.7 63.28,-166.86 71.07,-175.45 1.03,-1.14 14.55,2.58 30.55,8.44 105.31,38.53 225.11,47.44 323.98,24 161.27,-38.23 299.63,-158.89 405.16,-353.37l11.06 -20.44 -22.18 -10.55c-147.79,-70.01 -305.44,-82.54 -447.27,-35.64 -124.35,41.12 -234.86,141.43 -320.85,291.25 -3.49,6.08 -7.14,11.06 -8.07,11.06 -7.25,0 -66.9,-37.01 -102.78,-63.79 -12.14,-9.06 -23.06,-17.14 -24.22,-17.97 -1.16,-0.83 2.6,-7.63 8.36,-15.13 120.49,-156.64 164.18,-338.29 121.69,-505.9 -26.49,-104.49 -90.6,-218 -163.52,-289.43l-13.82 -13.53 0 -0.01zm0.73 90.41l16.88 22.33c108.49,144.34 140.1,315.14 87.58,472.95 -21.13,63.49 -61.93,139.62 -99.58,185.92l-5.46 6.77 -7.13 -9.09c-95.67,-121.42 -139.75,-280.1 -115.95,-417.23 14.64,-84.37 64.07,-192.23 115.87,-252.62l7.78 -9.02 0 -0zm-676.04 547.51c80.49,0.04 157.31,18.27 221.2,54.26 79.46,44.76 162.09,132.08 215.74,227.89l7.35 13.09 -19.28 7.06c-80.47,29.12 -160.68,40.29 -234.58,32.73 -149.69,-15.3 -290.48,-115.28 -387.55,-275.17 -12.3,-20.26 -12.42,-19.82 6.98,-26.7 62.7,-22.22 127.54,-33.2 190.14,-33.17l0 -0zm1349.38 0.14c64.41,-0.34 130.89,10.72 193.41,33.61 18.83,6.89 18.99,5.6 -5.24,42.62 -122.93,187.83 -283.62,276.14 -470.77,258.73 -42.88,-3.99 -119.93,-22.98 -153.04,-37.68l-6.4 -2.84 11.86 -19.78c59.8,-99.35 127.56,-171.2 204.98,-217.34 63.01,-37.55 142.39,-56.88 225.2,-57.32l0 -0zm-673.56 229.64c1.25,-0.06 2.25,0.39 3.42,1.24 2.33,1.68 14.01,10.51 25.97,19.57 30.56,23.14 59.38,42.05 89.98,59.14 14.46,8.08 25.78,15.83 25.17,17.24 -0.61,1.41 -8.88,19.83 -18.4,40.95 -47.06,104.4 -86.94,233.58 -114.56,371.19 -9.14,45.53 -12.8,60.97 -12.8,54.12 0,-0.79 -4.7,-25.09 -10.47,-54.05 -27.67,-138.66 -71.85,-279.23 -120.97,-384.79 -7.33,-15.76 -12.78,-29.19 -12.08,-29.9 0.71,-0.71 14.44,-8.76 30.48,-17.89 30.82,-17.56 74.12,-46.83 98.71,-66.7 8.94,-7.22 12.81,-9.97 15.57,-10.11zm918.62 280.56c6.24,-0.13 4.15,4.36 -7.06,30.48 -58.37,136.02 -186.01,271.2 -318.96,337.87 -90.86,45.57 -205.69,75.78 -341.8,89.83 -24.62,2.54 -46.25,4.58 -48.08,4.58 -2.8,0 -2.68,-2.15 0.8,-13.38 73.64,-237.76 325.95,-397.33 709.42,-448.73 2.32,-0.31 4.23,-0.63 5.67,-0.66l-0 0zm-1839.86 0.44c10.75,-0.25 85.01,10.94 124.31,18.91 255.19,51.77 445.33,164.52 542.49,321.58 22.58,36.5 47.5,91.37 52.23,115 1.65,8.26 4.38,8.14 -50.41,2.25 -178.08,-19.14 -315.75,-63.68 -414.32,-134.06 -82.81,-59.13 -155.42,-135.8 -203.82,-215.16 -24.33,-39.91 -55.35,-104.75 -51.79,-108.31 0.12,-0.12 0.59,-0.2 1.31,-0.22z"/>
     <path id="path3160" class="fil4" d="M599.27 1829.61c0.11,-0.18 0.23,1.61 0.36,5.53 0.42,12.55 0.42,32.45 0,44.23 -0.11,3.13 -0.27,4.63 -0.36,4.8 -0.24,-0.84 -0.44,-10.92 -0.44,-27.64 0,-16.72 0.2,-26.51 0.44,-26.91z"/>
     <path id="path3158" class="fil4" d="M3010.72 1831.79c0.11,-0.35 0.23,1.01 0.36,4.29 0.43,10.5 0.43,28.31 0,39.57 -0.43,11.26 -0.8,2.63 -0.8,-19.13 0,-14.96 0.19,-23.96 0.44,-24.73z"/>
     <path id="path3152" class="fil5" d="M1331.61 2664.37c-27.1,-0.1 -52.51,4.53 -79.65,13.38l-22.11 7.2 12.8 2.04c58.09,9.09 94.87,22.59 159.44,58.7 31.48,17.61 50.34,29.35 135,84.16 162.94,105.48 224.18,128.4 306.89,114.56 55.79,-9.33 114.19,-40.06 272.7,-143.3 105.57,-68.76 172.61,-101.24 226.95,-110.05 9.6,-1.56 21.65,-3.58 26.77,-4.51l9.31 -1.74 -22.11 -7.13c-79.21,-25.64 -143.99,-15.66 -276.19,42.55 -125.59,55.3 -189.11,71.79 -276.63,71.79 -87.48,0 -150.62,-16.38 -276.48,-71.72 -87.14,-38.31 -144.96,-55.75 -196.69,-55.94l-0 0z"/>
     <path id="path3096" class="fil4" d="M1803.83 3061.38c5.91,0 11.92,0.14 16.58,0.36 9.34,0.44 2.28,0.8 -15.64,0.8 -17.92,0 -25.53,-0.35 -16.95,-0.8 4.29,-0.22 10.1,-0.36 16,-0.36z"/>
    </g>
   </g>
  </g>
  <polygon class="fil6" points="76.77,4221.68 76.77,3877.14 146.54,3877.14 146.54,4029.76 287.13,3877.14 380.65,3877.14 250.64,4011.32 387.38,4221.68 297.4,4221.68 202.6,4059.92 146.54,4117.5 146.54,4221.68 "/>
  <polygon id="1" class="fil6" points="423.31,4221.68 423.31,3877.14 678.35,3877.14 678.35,3935.37 493.09,3935.37 493.09,4011.88 665.36,4011.88 665.36,4070.1 493.09,4070.1 493.09,4163.45 685.09,4163.45 685.09,4221.68 "/>
  <polygon id="2" class="fil6" points="743.31,4221.68 743.31,3877.14 847.81,3877.14 909.57,4112.13 970.6,3877.14 1075.34,3877.14 1075.34,4221.68 1010.86,4221.68 1010.62,3950.44 942.69,4221.68 875.64,4221.68 808.03,3950.44 807.79,4221.68 "/>
  <polygon id="3" class="fil6" points="1145.11,4221.68 1145.11,3877.14 1400.15,3877.14 1400.15,3935.37 1214.89,3935.37 1214.89,4011.88 1387.16,4011.88 1387.16,4070.1 1214.89,4070.1 1214.89,4163.45 1406.89,4163.45 1406.89,4221.68 "/>
  <polygon id="4" class="fil6" points="1466.08,4221.68 1466.08,3877.14 1533.6,3877.14 1675.4,4108.04 1675.4,3877.14 1739.88,3877.14 1739.88,4221.68 1670.18,4221.68 1530.56,3995.2 1530.56,4221.68 "/>
  <polygon id="5" class="fil6" points="1891.06,4221.68 1891.06,3935.37 1789.04,3935.37 1789.04,3877.14 2062.36,3877.14 2062.36,3935.37 1960.83,3935.37 1960.83,4221.68 "/>
  <polygon id="6" class="fil6" points="2107.52,4221.68 2107.52,3877.14 2362.55,3877.14 2362.55,3935.37 2177.29,3935.37 2177.29,4011.88 2349.56,4011.88 2349.56,4070.1 2177.29,4070.1 2177.29,4163.45 2369.29,4163.45 2369.29,4221.68 "/>
  <path id="7" class="fil6" d="M2428.48 4221.68l0 -344.54 146.53 0c36.81,0 63.6,3.13 80.28,9.3 16.76,6.17 30.08,17.16 40.1,32.96 10.03,15.88 15.08,33.92 15.08,54.29 0,25.91 -7.54,47.24 -22.7,64.08 -15.16,16.84 -37.77,27.43 -67.93,31.84 15,8.74 27.35,18.37 37.05,28.87 9.79,10.51 22.94,29.19 39.46,55.98l42.03 67.21 -83.17 0 -49.88 -75.23c-17.88,-26.71 -30.15,-43.55 -36.81,-50.53 -6.58,-6.9 -13.55,-11.71 -20.93,-14.27 -7.46,-2.57 -19.17,-3.85 -35.21,-3.85l-14.12 0 0 143.88 -69.77 0zm69.77 -198.74l51.49 0c33.36,0 54.14,-1.44 62.48,-4.25 8.26,-2.81 14.84,-7.7 19.49,-14.6 4.73,-6.9 7.06,-15.56 7.06,-25.91 0,-11.63 -3.13,-20.93 -9.3,-28.15 -6.17,-7.14 -14.92,-11.63 -26.14,-13.47 -5.69,-0.8 -22.62,-1.2 -50.77,-1.2l-54.3 0 0 87.58z"/>
  <polygon id="8" class="fil6" points="2773.58,4221.68 2773.58,3877.14 2843.35,3877.14 2843.35,4221.68 "/>
  <path id="9" class="fil6" d="M3220.05 4221.68l-75.15 0 -29.75 -78.44 -138.18 0 -28.63 78.44 -73.78 0 133.77 -344.54 73.7 0 138.03 344.54zm-127.52 -136.66l-47.88 -127.52 -46.52 127.52 94.39 0z"/>
  <polygon id="10" class="fil6" points="3257.18,4221.68 3257.18,3877.14 3324.71,3877.14 3466.51,4108.04 3466.51,3877.14 3530.99,3877.14 3530.99,4221.68 3461.29,4221.68 3321.67,3995.2 3321.67,4221.68 "/>
  <path id="11" class="fil6" d="M454.55 4759.26l0 -344.54 111.56 0c42.26,0 69.77,1.68 82.61,5.13 19.73,5.21 36.25,16.44 49.56,33.77 13.31,17.32 19.97,39.7 19.97,67.13 0,21.17 -3.85,38.9 -11.47,53.33 -7.7,14.44 -17.4,25.74 -29.19,34.01 -11.79,8.18 -23.82,13.63 -36.01,16.28 -16.6,3.29 -40.58,4.97 -72.02,4.97l-45.23 0 0 129.92 -69.77 0zm69.77 -286.31l0 98.16 37.94 0c27.35,0 45.55,-1.85 54.78,-5.45 9.22,-3.61 16.44,-9.22 21.65,-17 5.21,-7.7 7.86,-16.6 7.86,-26.87 0,-12.59 -3.69,-22.94 -10.99,-31.12 -7.38,-8.18 -16.6,-13.31 -27.91,-15.4 -8.26,-1.53 -24.86,-2.33 -49.88,-2.33l-33.44 0z"/>
  <polygon id="12" class="fil6" points="775.51,4759.26 775.51,4414.72 1030.55,4414.72 1030.55,4472.95 845.29,4472.95 845.29,4549.46 1017.56,4549.46 1017.56,4607.68 845.29,4607.68 845.29,4701.04 1037.29,4701.04 1037.29,4759.26 "/>
  <path id="13" class="fil6" d="M1096.47 4759.26l0 -344.54 146.53 0c36.81,0 63.6,3.13 80.28,9.3 16.76,6.17 30.08,17.16 40.1,32.96 10.03,15.88 15.08,33.92 15.08,54.29 0,25.91 -7.54,47.24 -22.7,64.08 -15.16,16.84 -37.77,27.43 -67.93,31.84 15,8.74 27.35,18.37 37.05,28.87 9.79,10.51 22.94,29.19 39.46,55.98l42.03 67.21 -83.17 0 -49.88 -75.23c-17.88,-26.71 -30.15,-43.55 -36.81,-50.53 -6.58,-6.9 -13.55,-11.71 -20.93,-14.27 -7.46,-2.57 -19.17,-3.85 -35.21,-3.85l-14.12 0 0 143.88 -69.77 0zm69.77 -198.74l51.49 0c33.36,0 54.14,-1.44 62.48,-4.25 8.26,-2.81 14.84,-7.7 19.49,-14.6 4.73,-6.9 7.06,-15.56 7.06,-25.91 0,-11.63 -3.13,-20.93 -9.3,-28.15 -6.17,-7.14 -14.92,-11.63 -26.14,-13.47 -5.69,-0.8 -22.62,-1.2 -50.77,-1.2l-54.3 0 0 87.58z"/>
  <polygon id="14" class="fil6" points="1521.45,4759.26 1521.45,4472.95 1419.44,4472.95 1419.44,4414.72 1692.76,4414.72 1692.76,4472.95 1591.23,4472.95 1591.23,4759.26 "/>
  <path id="15" class="fil6" d="M2012.6 4759.26l-75.15 0 -29.75 -78.44 -138.18 0 -28.63 78.44 -73.78 0 133.77 -344.54 73.7 0 138.03 344.54zm-127.52 -136.66l-47.88 -127.52 -46.52 127.52 94.39 0z"/>
  <polygon id="16" class="fil6" points="2049.73,4759.26 2049.73,4414.72 2117.26,4414.72 2259.05,4645.62 2259.05,4414.72 2323.53,4414.72 2323.53,4759.26 2253.84,4759.26 2114.21,4532.78 2114.21,4759.26 "/>
  <polygon id="17" class="fil6" points="2394.83,4759.26 2394.83,4414.72 2464.6,4414.72 2464.6,4759.26 "/>
  <path id="18" class="fil6" d="M2841.31 4759.26l-75.15 0 -29.75 -78.44 -138.18 0 -28.63 78.44 -73.78 0 133.77 -344.54 73.7 0 138.03 344.54zm-127.52 -136.66l-47.88 -127.52 -46.52 127.52 94.39 0z"/>
  <polygon id="19" class="fil6" points="2878.44,4759.26 2878.44,4414.72 2945.97,4414.72 3087.76,4645.62 3087.76,4414.72 3152.24,4414.72 3152.24,4759.26 3082.55,4759.26 2942.92,4532.78 2942.92,4759.26 "/>
 </g>
</svg>
