<?xml version="1.0" encoding="UTF-8"?>
<!DOCTYPE svg PUBLIC "-//W3C//DTD SVG 1.0//EN" "http://www.w3.org/TR/2001/REC-SVG-20010904/DTD/svg10.dtd">
<!-- Creator: CorelDRAW 2018 -->
<svg xmlns="http://www.w3.org/2000/svg" xml:space="preserve" width="210.076mm" height="210.076mm" version="1.0" style="shape-rendering:geometricPrecision; text-rendering:geometricPrecision; image-rendering:optimizeQuality; fill-rule:evenodd; clip-rule:evenodd"
viewBox="0 0 36462.37 36462.37"
 xmlns:xlink="http://www.w3.org/1999/xlink">
 <defs>
  <style type="text/css">
   <![CDATA[
    .str0 {stroke:white;stroke-width:13.23;stroke-miterlimit:22.9256}
    .fil0 {fill:none}
    .fil4 {fill:#332C2B}
    .fil3 {fill:#3333CC}
    .fil5 {fill:red}
    .fil2 {fill:url(#id0)}
    .fil1 {fill:url(#id1)}
   ]]>
  </style>
  <linearGradient id="id0" gradientUnits="userSpaceOnUse" x1="15910.24" y1="20118.64" x2="15910.24" y2="11323.81">
   <stop offset="0" style="stop-opacity:1; stop-color:#00CC00"/>
   <stop offset="1" style="stop-opacity:1; stop-color:#003399"/>
  </linearGradient>
  <linearGradient id="id1" gradientUnits="userSpaceOnUse" xlink:href="#id0" x1="17431.85" y1="11122.3" x2="5379.7" y2="13530.1">
  </linearGradient>
 </defs>
 <g id="Layer_x0020_1">
  <metadata id="CorelCorpID_0Corel-Layer"/>
  <g id="kementerian-kelautan-dan-perikanan.cdr">
   <rect class="fil0 str0" x="6.61" y="6.61" width="36449.14" height="36449.14"/>
   <g>
    <path class="fil1" d="M15779.51 7781.06c4874.08,-449.9 8571.52,1889.92 10443.17,5262.2l-1975.3 710.74 1133.95 2378.43c0,11.07 -0.33,22.29 -0.35,33.38 -4556.06,1636.43 -10070.71,874.1 -12239.8,-1379.9 3294.26,1135.82 6691.98,1513.19 10317.24,221.92l-1047.93 -1875.88 1774.48 -733.79c-1795.02,-1650.73 -3989.19,-2851.4 -6757.13,-3018.13 -4573.41,-275.5 -10047.78,2311.5 -10544.77,8886.67 -345.69,4573.52 1596.21,7957.25 5046.05,10731.7 -3737.48,-1620.3 -6331.34,-5615.41 -6331.34,-10197.43 0.1,-6437.61 4879.88,-10530.45 10181.72,-11019.91z"/>
    <path class="fil2" d="M20225.54 14123.8c659.43,3218.41 -931.17,5633.27 -2459.69,5633.27 -2014.37,0 -3587.83,-3963.51 -3229.86,-8667.61 278.84,-3664.15 1353.88,-7212.16 2767.51,-8601.95 -777.34,1750.86 -1400.01,4260.02 -1699.35,6826.14 -548.73,4704.09 555.76,8667.61 2239.02,8667.61 1028.66,0 2174.07,-1566.5 2382.37,-3857.46z"/>
    <path class="fil3" d="M17197.85 20544.54c401.76,-360.67 837.51,-439 1108.26,-108.38 177.79,217.08 148.17,497.93 -8.11,766.68 536.5,174.11 856.62,540.02 805.72,1088.91 -75.4,812.89 -973.45,1417.23 -2106.57,1436.96 -1001.31,17.43 -2314.94,-513.29 -3129.12,-1675.34 -910.31,-1299.26 -937.21,-2836.99 -773.09,-3703.89 129.85,1173.49 641,2379.37 1138.48,3046.51 295.32,396.05 1015.42,1285.41 2792.59,1318.37 781.99,14.51 1200.76,-386.5 1180.66,-760.88 -15.99,-297.63 -368,-447.86 -613.75,-509.65 231.4,-202.62 345.68,-453.36 211.23,-678.35 -130.57,-218.5 -354.27,-295.45 -606.31,-220.93zm5283.46 -593.32c384.07,-932.94 1306.91,-855.69 1623.65,-677.47 494.09,278.04 878.82,589.75 808.93,2046.31 260.54,-528.27 2729.31,-1740.72 3152.47,506.89 195.32,1037.38 33.19,2056.15 -378.39,3003.22 -411.58,947.07 -1072.66,1822.47 -1875.27,2573.05 -802.61,750.57 -1746.78,1376.39 -2724.57,1824.31 -977.77,447.93 -1989.19,717.98 -2926.22,757.05 -2238.08,93.31 -4463.32,-832.83 -6276.18,-2148.57 -1673.21,-1214.36 -2546.89,-3076.76 -3500.04,-5080.63 533.62,2099.64 1089.43,4126.01 2596.06,5520.08 1773.2,1640.75 3689.07,2942.05 6587.87,3031.2 2081.68,64.03 4224.51,-672.16 5979.97,-1763.39 3244.03,-2016.56 6368.67,-7023.66 3214.59,-10556.75 -690.97,-774.01 -2243.25,-865.2 -3230.04,-69.98 -178.67,-709.6 -978.21,-1583.4 -1727.55,-1397.3 -685.73,170.3 -1595.21,866.55 -1325.27,2431.99zm-2436.83 1393.26c101.42,-399.62 522.49,-848.59 960.76,-931.4 479.9,-90.69 1053,127.16 1381.34,488.75 288.36,317.58 297.11,854.04 214.67,1268.88 1231.84,-226.61 1891.29,719.25 1886.02,1561.74 -6.77,1075.15 -585.39,2048.16 -1570.14,2742.94 -745.89,526.26 -1512.76,891.36 -2285.27,1108.12 -772.5,216.75 -1550.67,285.15 -2319.12,218.02 -768.45,-67.14 -1527.24,-269.88 -2261.01,-595.39 -733.77,-325.53 -1442.57,-773.82 -2110.96,-1332.08 -961.81,-803.32 -1523.26,-1947.15 -1892.11,-3058.33 -313.22,-943.62 -363.9,-1881.5 -104.12,-2943.77 257.17,1748.71 508.93,3320.71 1670.53,4354.89 1487.92,1324.68 3058.4,2221.4 5293.39,2113.32 1312.74,-63.58 3116.97,-665.14 3672.98,-2099.84 249.85,-644.7 -219.74,-1639.24 -1315.29,-1573.16 359.18,-353.59 390.94,-919.98 70.4,-1258.9 -320.56,-338.92 -921.33,-405.19 -1292.05,-63.8z"/>
    <path class="fil4" d="M3196.29 18675.55l1577.68 -27.55 5.55 318.46 -700.5 12.24 711.73 631.32 7.48 428.33 -624.91 -583.26 -952.21 643.1 -7.19 -412.14 732.96 -446.36 -268.25 -254.02 -476.79 8.33 -5.55 -318.46zm43.5 1581.88l1566.17 -192.3 142.55 1161.03 -265.09 32.56 -103.74 -844.91 -347.15 42.63 96.54 786.19 -263.63 32.37 -96.54 -786.19 -426.28 52.35 107.42 874.78 -264.01 32.42 -146.23 -1190.93zm207.34 1447.62l1537.48 -354.95 107.26 464.64 -984.46 521 1112.46 33.48 107.52 465.73 -1537.48 354.95 -66.53 -288.16 1210.3 -279.43 -1280.79 -25.91 -69.01 -298.9 1140.04 -583.71 -1210.29 279.43 -66.53 -288.17zm464.62 1785.16l1491.95 -513.72 380.82 1106.04 -252.52 86.94 -277.15 -804.87 -330.7 113.88 257.89 748.94 -251.13 86.47 -257.89 -748.94 -406.08 139.83 286.94 833.33 -251.5 86.61 -390.63 -1134.51zm497.72 1383.85l1418.22 -691.72 135.94 278.7 -663.9 1042.39 947.02 -461.9 129.81 266.13 -1418.24 691.72 -140.26 -287.6 646.12 -1022.68 -924.91 451.1 -129.81 -266.15zm955.71 1811.14l1111.65 -694.63 -248.03 -396.91 226.51 -141.53 664.45 1063.33 -226.51 141.54 -247.44 -395.98 -1111.65 694.63 -168.99 -270.45zm532.92 857.68l1243.42 -971.46 720.17 921.78 -210.47 164.42 -524.07 -670.79 -275.61 215.33 487.65 624.18 -209.3 163.54 -487.65 -624.18 -338.44 264.41 542.62 694.51 -209.6 163.76 -738.72 -945.51zm908.3 1137.68l1154.01 -1076.13 457.52 490.62c115.01,123.32 187.96,222.58 219.39,297.74 31.43,75.19 36.47,154.39 14.84,237.34 -21.89,83.19 -66.79,156.23 -135.05,219.88 -86.51,80.67 -182.05,122.05 -285.83,123.88 -103.52,1.6 -210.4,-41.38 -319.36,-129.15 17.55,78.07 24.14,149.77 19.49,215.38 -4.62,65.61 -25.86,167.8 -63.75,307.09l-93.6 351.04 -259.83 -278.63 94.13 -402.73c33.86,-143.63 52.21,-237.08 55.04,-280.9 2.85,-43.83 -3.12,-81.99 -17.3,-114.97 -14.44,-32.73 -46.48,-75.73 -96.59,-129.45l-43.84 -47.02 -481.77 449.24 -217.48 -233.22zm883.56 -387.91l160.6 172.23c104.23,111.78 173.95,177.37 209.41,196.55 35.22,18.9 71.89,25.38 109.78,19.68 37.65,-5.97 73.9,-24.7 108.58,-57.03 38.95,-36.33 60.33,-75.87 64.97,-118.86 4.62,-42.99 -7.64,-86.3 -36.54,-130.19 -15.12,-21.09 -66.63,-79.03 -154.82,-173.6l-169.37 -181.64 -292.62 272.87zm199.67 1542.86l1096.13 -1135.06 229.13 221.28 -1096.11 1135.06 -229.14 -221.28zm1558.29 1310.68l-269.52 -218.26 118.6 -365.36 -490.22 -396.98 -326.74 196.83 -262.66 -212.71 1470.67 -839.48 261.83 212.01 -501.96 1623.95zm-63.14 -854.32l199.53 -591.97 -534.14 321 334.6 270.97zm208.89 938.81l859.4 -1323.35 260.06 168.88 -32.2 1235.42 573.87 -883.67 248.32 161.28 -859.38 1323.35 -268.37 -174.28 27.13 -1209.38 -560.47 863.03 -248.36 -161.28zm1907.78 1126.76l666.85 -1430.09 288.68 134.62 -296.09 634.96 879.43 -362.95 388.25 181.05 -798.17 305.98 160.6 1137.75 -373.59 -174.21 -79.88 -854.45 -345.9 129.76 -201.53 432.18 -288.66 -134.6zm1440.19 644l513.72 -1491.97 1106.02 380.84 -86.96 252.54 -804.87 -277.13 -113.86 330.7 748.93 257.87 -86.47 251.15 -748.94 -257.89 -139.81 406.08 833.33 286.94 -86.59 251.5 -1134.51 -390.63zm1416.33 451.52l378.62 -1518.58 309.05 77.06 -314.28 1260.46 768.57 191.64 -64.36 258.08 -1077.61 -268.66zm2710.01 482.73l-344.22 -42.26 -93.03 -372.68 -626.11 -76.89 -172.79 340.05 -335.47 -41.19 802.35 -1491.26 334.39 41.07 434.87 1643.16zm-506.26 -691.04l-144.49 -607.75 -282.86 555.28 427.36 52.47zm739.83 -897.01l318.32 11.11 -29.82 854.02c-4.74,135.47 -3.77,223.73 2.55,264.03 11.32,65.11 42.19,118.01 91.87,158.71 50.02,41.08 119.48,62.99 208.32,66.09 90.32,3.16 159.27,-12.83 206.46,-48.3 47.18,-35.11 76.32,-79.68 87.36,-132.95 11.44,-53.65 18.95,-142.71 23.31,-267.55l30.46 -872.37 318.34 11.11 -28.92 828.32c-6.63,189.45 -19.73,322.82 -39.73,400.4 -19.99,77.62 -53.86,142.24 -102.01,194.59 -48.13,51.98 -111.67,92.79 -189.9,122.02 -78.59,29.25 -180.49,41.5 -305.3,37.14 -150.55,-5.26 -264.12,-26.5 -340.75,-64.12 -76.61,-37.58 -136.35,-84.89 -179.57,-141.91 -43.24,-57.02 -70.94,-116.43 -83.12,-177.87 -17.77,-91.05 -23.41,-224.7 -17.24,-401.31l29.37 -841.16zm1892.04 1570.59l-114.24 -1305.85 -466.27 40.79 -23.28 -266.06 1249.09 -109.28 23.28 266.06 -465.14 40.7 114.24 1305.83 -317.68 27.81zm2223.83 -301.3l-340.43 66.16 -203.65 -325.7 -619.22 120.37 -59.26 376.8 -331.77 64.5 302.27 -1666.21 330.7 -64.27 921.36 1428.36zm-695.03 -500.76l-325.23 -533.37 -97.42 615.52 422.65 -82.15zm867.68 471.27l-434.93 -1516.79 298.07 -85.48 911.26 834.82 -290.43 -1012.83 284.63 -81.63 434.94 1516.79 -307.6 88.21 -894.95 -813.89 283.64 989.18 -284.65 81.63zm1436.63 -2069.62l527.75 -246.08c118.86,-55.44 213.63,-88.66 284.77,-99.54 95.39,-14.49 187.8,-4.08 276.91,31.4 89.28,34.97 170.89,90.95 244.75,167.6 73.66,77.1 141.79,182.37 204.36,316.55 54.81,117.54 87.51,225.92 97.96,324.81 12.83,120.49 1.15,228.48 -35.46,323.81 -27.13,72.24 -77.03,141.72 -149.53,208.77 -54.14,49.97 -134.71,99.7 -241.59,149.55l-543.07 253.23 -666.85 -1430.09zm401.57 107.46l441.56 946.95 215.43 -100.46c80.57,-37.58 136.82,-69.06 168.43,-95.17 41.2,-33.38 70.99,-71.18 88.92,-113.6 17.91,-42.4 21.31,-100.34 11.14,-173.41 -10.5,-72.95 -41.34,-165.17 -92.89,-275.73 -51.55,-110.53 -100.98,-190.44 -147.93,-240.7 -47.26,-50.13 -96.16,-83.68 -146.49,-100.32 -50.82,-16.85 -105.84,-18.35 -165.22,-4.84 -44.64,9.46 -125.56,41.92 -243.43,96.89l-129.52 60.4zm2937.66 -64.76l-297.27 178.62 -302.77 -236.4 -540.71 324.88 73.21 374.35 -289.72 174.07 -285.85 -1669.09 288.78 -173.52 1354.33 1027.08zm-824.39 -232.86l-488.04 -389.95 118.96 611.72 369.07 -221.77zm970.83 136.7l-927.47 -1276.57 250.86 -182.26 1141.83 472.8 -619.32 -852.42 239.56 -174.04 927.47 1276.55 -258.88 188.09 -1119.34 -458.74 604.86 832.52 -239.58 174.07zm1746.68 -1338.03l-1096.11 -1135.04 367.6 -355c139.29,-134.5 235.81,-216.47 289.06,-245.94 81.35,-45.86 171.78,-61.69 270.78,-46.98 98.99,14.74 192.1,67.27 279.15,157.39 67.36,69.77 111.34,140.69 131.65,212.5 20.57,72.07 24.58,140.23 11.75,205.21 -12.81,64.46 -35.1,120.72 -66.84,168.22 -44.26,63.66 -118.18,145.78 -222.03,246.07l-149.32 144.22 413.42 428.12 -229.11 221.25zm-681.46 -1164.19l310.84 321.88 125.26 -120.96c90.38,-87.29 145.31,-151.54 164.19,-192.78 18.92,-41.24 24.84,-82.7 17.77,-124.92 -7.32,-41.97 -26.94,-79.72 -59.34,-113.29 -39.82,-41.22 -84.87,-63.58 -135.23,-67.05 -49.83,-3.47 -97.08,9.46 -140.47,38.6 -32.58,21.24 -89.86,71.96 -172.3,151.58l-110.74 106.93zm1720.63 138.75l-1208.76 -1014.26 751.91 -896.09 204.58 171.68 -547.15 652.09 267.92 224.82 509.14 -606.77 203.47 170.72 -509.14 606.79 329 276.06 566.52 -675.16 203.77 170.96 -771.26 919.16zm952.59 -1133.33l-1292.56 -905.05 384.78 -549.53c96.71,-138.12 178.64,-230.13 245.62,-276.49 67.01,-46.38 143.44,-67.76 229.07,-63.87 85.92,4.11 166.69,32.86 243.13,86.38 96.9,67.85 157.23,152.7 180.61,253.84 23.07,100.91 3.25,214.41 -59.95,339.24 72.72,-33.39 141.49,-54.74 206.63,-63.86 65.14,-9.11 169.52,-9.58 313.64,-1.49l362.83 18.59 -218.52 312.07 -413.51 -8.33c-147.51,-3.26 -242.73,-1.79 -286.2,4.58 -43.46,6.32 -79.55,20.08 -108.86,40.81 -29,20.95 -64.39,61.22 -106.54,121.41l-36.87 52.66 539.59 377.82 -182.91 261.22zm-563.14 -783.6l135.09 -192.9c87.65,-125.18 137.33,-207.01 148.71,-245.7 11.16,-38.36 9.88,-75.59 -3.58,-111.46 -13.66,-35.58 -39.54,-67.15 -78.37,-94.33 -43.63,-30.57 -86.75,-43.25 -129.76,-38.84 -43.01,4.41 -82.83,25.41 -119.76,62.8 -17.48,19.16 -63.44,81.61 -137.62,187.54l-142.45 203.44 327.73 229.47zm1432.43 -537.3l-1366.51 -788.97 159.27 -275.85 1366.51 788.95 -159.27 275.87zm322.71 -546.53l-1418.22 -691.72 139.62 -286.28 629.7 307.13 -347.53 -885.64 187.78 -385.02 292.01 803.39 1140.39 -140.73 -180.7 370.5 -855.72 64.95 123.7 348.11 428.61 209.04 -139.63 286.28zm1149.35 -2768.75l-107.16 329.83 -383.6 20.22 -194.93 599.94 300.83 234.49 -104.44 321.45 -1310.76 -1072.16 104.11 -320.41 1695.96 -113.36zm-774.94 365.12l-624.15 25.86 491.11 383.64 133.04 -409.5zm856.23 -517.42l-1537.48 -354.95 69.76 -302.13 1171.93 -392.3 -1026.65 -237.02 66.62 -288.5 1537.48 354.95 -71.98 311.8 -1145.74 388.15 1002.68 231.49 -66.62 288.52zm530.28 -2958.46l-36.26 344.9 -371 99.52 -65.94 627.36 343 166.83 -35.32 336.13 -1505.02 -776.21 35.2 -335.04 1635.33 -463.49zm-682.08 518.25l-605.14 155.07 560.14 273.14 45.01 -428.21zm722.58 -694.08l-1577.68 -27.53 5.42 -310.03 1064.77 -627.38 -1053.5 -18.4 5.17 -296.05 1577.68 27.53 -5.57 319.95 -1040 617.87 1028.89 17.96 -5.17 296.07z"/>
    <path class="fil5" d="M20450.76 10858.11c633.73,0 1151.08,517.35 1151.08,1151.08 0,633.83 -517.35,1151.13 -1151.08,1151.13 -633.83,0 -1151.13,-517.3 -1151.13,-1151.13 0,-633.73 517.3,-1151.08 1151.13,-1151.08zm400.26 452.75c167.93,0 305.01,137.08 305.01,305.01 0,167.94 -137.08,305.03 -305.01,305.03 -167.94,0 -305.03,-137.08 -305.03,-305.03 0,-167.93 137.08,-305.01 305.03,-305.01z"/>
   </g>
  </g>
 </g>
</svg>
