<?xml version="1.0" encoding="UTF-8"?>
<!DOCTYPE svg PUBLIC "-//W3C//DTD SVG 1.0//EN" "http://www.w3.org/TR/2001/REC-SVG-20010904/DTD/svg10.dtd">
<!-- Creator: CorelDRAW 2018 -->
<svg xmlns="http://www.w3.org/2000/svg" xml:space="preserve" width="181.153mm" height="237.893mm" version="1.0" style="shape-rendering:geometricPrecision; text-rendering:geometricPrecision; image-rendering:optimizeQuality; fill-rule:evenodd; clip-rule:evenodd"
viewBox="0 0 3289.55 4319.89"
 xmlns:xlink="http://www.w3.org/1999/xlink">
 <defs>
  <style type="text/css">
   <![CDATA[
    .fil7 {fill:none}
    .fil6 {fill:black}
    .fil4 {fill:#009B4C}
    .fil1 {fill:#00A2E9}
    .fil3 {fill:#D1A764}
    .fil5 {fill:#ED751E}
    .fil0 {fill:#F08519}
    .fil2 {fill:#FEFEFE}
    .fil10 {fill:#332C2B;fill-rule:nonzero}
    .fil8 {fill:black;fill-rule:nonzero}
    .fil9 {fill:#332C2B;fill-rule:nonzero}
   ]]>
  </style>
 </defs>
 <g id="Layer_x0020_1">
  <metadata id="CorelCorpID_0Corel-Layer"/>
  <g id="_-1562133000">
   <path class="fil0" d="M1644.78 0c908.38,0 1644.77,736.39 1644.77,1644.77 0,908.38 -736.39,1644.77 -1644.77,1644.77 -908.39,0 -1644.78,-736.39 -1644.78,-1644.77 0,-908.38 736.39,-1644.77 1644.78,-1644.77zm0.37 85.74c426.65,0 812.92,173.72 1092.53,454.58 279.6,280.85 452.54,668.83 452.54,1097.37 0,428.53 -172.94,816.51 -452.54,1097.37 -279.61,280.86 -665.88,454.58 -1092.53,454.58 -426.65,0 -812.92,-173.72 -1092.53,-454.58 -279.6,-280.85 -452.54,-668.83 -452.54,-1097.37 0,-428.54 172.94,-816.52 452.54,-1097.37 279.61,-280.86 665.88,-454.58 1092.53,-454.58zm1084.33 462.74c-277.49,-278.73 -660.87,-451.13 -1084.33,-451.13 -423.47,0 -806.84,172.4 -1084.33,451.13 -277.5,278.74 -449.14,663.83 -449.14,1089.21 0,425.37 171.64,810.46 449.14,1089.2 277.49,278.73 660.87,451.13 1084.33,451.13 423.47,0 806.84,-172.4 1084.33,-451.13 277.5,-278.74 449.14,-663.83 449.14,-1089.21 0,-425.37 -171.64,-810.47 -449.14,-1089.21z"/>
   <path class="fil1" d="M1642.98 54.35c876.62,0 1587.26,710.8 1587.26,1587.62 0,876.82 -710.64,1587.62 -1587.26,1587.62 -876.62,0 -1587.26,-710.8 -1587.26,-1587.62 0,-876.82 710.64,-1587.62 1587.26,-1587.62zm2.18 31.39c426.65,0 812.92,173.72 1092.53,454.58 279.6,280.85 452.54,668.83 452.54,1097.37 0,428.53 -172.94,816.51 -452.54,1097.37 -279.61,280.86 -665.88,454.58 -1092.53,454.58 -426.65,0 -812.92,-173.72 -1092.53,-454.58 -279.6,-280.85 -452.54,-668.83 -452.54,-1097.37 0,-428.54 172.94,-816.52 452.54,-1097.37 279.61,-280.86 665.88,-454.58 1092.53,-454.58zm1084.33 462.74c-277.49,-278.73 -660.87,-451.13 -1084.33,-451.13 -423.47,0 -806.84,172.4 -1084.33,451.13 -277.5,278.74 -449.14,663.83 -449.14,1089.21 0,425.37 171.64,810.46 449.14,1089.2 277.49,278.73 660.87,451.13 1084.33,451.13 423.47,0 806.84,-172.4 1084.33,-451.13 277.5,-278.74 449.14,-663.83 449.14,-1089.21 0,-425.37 -171.64,-810.47 -449.14,-1089.21z"/>
   <path class="fil2" d="M1645.15 85.74c426.65,0 812.92,173.72 1092.53,454.58 279.6,280.85 452.54,668.83 452.54,1097.37 0,428.53 -172.94,816.51 -452.54,1097.37 -279.61,280.86 -665.88,454.58 -1092.53,454.58 -426.65,0 -812.92,-173.72 -1092.53,-454.58 -279.6,-280.85 -452.54,-668.83 -452.54,-1097.37 0,-428.54 172.94,-816.52 452.54,-1097.37 279.61,-280.86 665.88,-454.58 1092.53,-454.58z"/>
   <path class="fil3" d="M3170.46 1842.96c-5.76,43.23 -13.39,85.86 -22.63,127.88 -80.2,22.42 -220.31,8.21 -358.13,-4.36 56.27,94.2 174.04,128.53 324.57,130.97 -7.97,25.63 -16.58,50.98 -25.83,76.02 -325.7,-0.52 -472.35,-212.51 -771.68,-175.91 69.97,81.47 193.56,103.62 290.09,162.38 139.51,84.93 279.33,161.69 422.3,152.76 -11.8,24.3 -24.27,48.21 -37.27,71.77 -39.47,9.81 -84.29,14.64 -134.47,14.47 18.43,33.39 40.68,72.08 58.58,108.98 -36.15,53.06 -75.51,103.74 -117.79,151.76 -161.6,-99.46 -356.83,-138.8 -561.78,-160.75 103.52,169 268.48,245.45 489.52,237.41 -32.6,32.31 -66.62,63.17 -101.96,92.47 -40.71,-15.01 -84.59,-24.6 -131,-29.88 -0.55,38.84 19.66,68.11 49.7,92.85 -16.98,12.27 -34.22,24.21 -51.71,35.8 -109.7,-105.79 -243.72,-195.31 -351.42,-302.44 -130.93,-130.23 -156.94,-315.97 -364.32,-409.72 -50.85,275.12 120.23,389.95 304.36,530.18 107.14,81.6 210.07,166.34 307.37,245.16 -22.7,12.58 -45.78,24.56 -69.17,36 -46.11,-34.72 -87.38,-86.32 -133.2,-118.38 20.64,52.88 36.09,105.76 43.83,158.64 -20.98,8.65 -42.2,16.84 -63.63,24.57 -87.23,-173.26 -306.35,-235.51 -446.6,-427.25 -82.29,50.48 -102.22,167.97 -70.49,340.97 -103.64,-79.88 -163.77,-200.75 -160.29,-381.54 -148.88,28.56 -201.98,108.2 -190.89,180.55 18.57,121.15 180.67,186.82 206.47,371.18 -38,-3.5 -75.6,-8.38 -112.75,-14.61 -17.64,-94.17 -60.84,-172.65 -128.2,-236.31 -36.88,62.89 -57.48,127.04 -58.86,192.68 -31.56,-9.49 -62.7,-19.96 -93.38,-31.4 27.23,-96.81 35.99,-198.08 -9.08,-223.45 -34.37,12.95 -135.67,99.44 -187.81,133.73 -38.55,-20.98 -76.1,-43.58 -112.58,-67.69 124.53,-71.4 211.88,-140.93 235.98,-207.26 9.44,-25.97 20.17,-58.86 -2.33,-76.35 -38.97,-13.34 -63.37,6.54 -98.43,6.73 -31.92,0.18 -65.19,-0.86 -98.37,-1.81 -126.03,-3.62 -250.72,-6.04 -295.44,64.03 -20.03,-20.68 -39.55,-41.87 -58.41,-63.65 12.18,-25.83 35.97,-52.16 62.16,-76.93 -42.92,-1.12 -82.08,5.45 -109.3,19.71 -22.3,-28.38 -43.61,-57.58 -63.92,-87.52 34.86,-10.79 81.03,2.11 114.28,-17.33 -58.16,-7.84 -110.83,-19.23 -150.68,-38.89 -25.46,-41.26 -49.04,-83.81 -70.62,-127.54 384.54,156.25 753.13,235.93 1035.47,-98.14 -267.27,138.71 -694.58,-39.17 -1040.47,88.07 -13.75,-28.38 -26.62,-57.28 -38.66,-86.6 92.62,-18.18 171.48,-57.51 233.87,-122.16 -104.49,-12.58 -197.69,-12.67 -277.42,2.19 -7.15,-22.57 -13.79,-45.36 -19.92,-68.36 43.39,-9.17 93.19,-10.3 130.5,-32.35 -59.03,-17.44 -119.24,-33.5 -151.7,-57.58 -7.01,-34.5 -12.89,-69.41 -17.57,-104.7 76.81,15.11 166.41,46.95 262.96,39.25 155.99,-12.43 314.92,-115.03 453.66,-116.58 71.6,-0.8 158.02,1.24 224.64,10.9 82.99,12.04 143.84,32.18 206.84,30.03 143.4,-4.88 174.31,-76.68 222.65,-170.23l146.43 -23.05c47.89,6.05 127.67,-29.32 143.65,18.14 39.27,116.64 194.01,201.86 380.88,195.44 119.79,-4.11 243.63,-85.72 388.88,-89.83 235.69,-6.67 261.59,141.02 620.52,106.86l-0.01 -0zm-2403.39 316.77c-86.82,-70.63 -149.88,-84.37 -160.67,27.03 43.19,-37.39 112.3,0.9 160.67,-27.03zm540.31 -10.81c1.31,-101.83 -97.23,-94.89 -159.37,-19.6 61.52,-3.47 122.28,-6.04 159.37,19.6zm-86.81 -98.65c-259.36,-141.62 -444.65,-170.11 -510.52,-16.22 145.6,96.07 319.99,85.93 510.52,16.22zm308.38 208.11c-162.9,69.57 -227.99,198.44 -242.3,358.12 150.41,-28.15 240.47,-135.36 242.3,-358.12zm375.76 -132.44c200.19,18.02 352.65,100.45 435.36,277.03 -190.31,-5.07 -338.35,-91.78 -435.36,-277.03zm465.16 143.25c162.26,18.92 289.94,120.27 379.65,312.17 -163.8,-16.64 -284.96,-133.36 -379.65,-312.17z"/>
   <path class="fil4" d="M3161.73 1408.41c-172.92,164.67 -360.22,200.01 -527.41,208.18 -399.98,19.56 -721.3,-207.17 -750.34,72.84 -161.81,-25.93 -331.4,19.76 -493.21,-6.16 7.08,-119 -73.17,-143.46 -202.22,-128.18 -99.25,11.75 -227.37,51.15 -366.83,63.84 -231.88,21.09 -500.48,-12.4 -693.77,-206.2 5.81,-39.9 13.14,-79.31 21.94,-118.15 84.53,81.25 175.07,140.55 277.71,155.68 -96.27,-84.03 -121.5,-205.41 -248.97,-264.05 6.14,-20.14 12.66,-40.12 19.58,-59.9 45.51,30.19 99.13,50.93 138.91,87.8 58.66,54.39 95.3,134.46 153.97,188.85l17.49 -158.1c-99.49,-97.08 -198.97,-156.11 -298.46,-151.31 10.01,-26.64 20.75,-52.91 32.17,-78.82 86.14,9.41 189.24,58.44 279.89,150.39l3.67 -66.39c-85.73,-70.54 -161.09,-148.66 -202.88,-241.76 19.11,-32.59 39.37,-64.4 60.74,-95.4 45.67,107.86 106.93,184.72 183.82,230.57l79.04 -77.03c-81.28,-49.88 -149.28,-126.3 -198.57,-240.11 25.69,-32.2 52.66,-63.33 80.8,-93.34 23.57,80.15 72.91,144.94 134.61,202.36l144.47 -141.22c-79.54,-41.69 -162.31,-82.75 -211.31,-129.07 23.13,-21.78 46.93,-42.86 71.37,-63.18 44.43,43.94 115.44,69.18 200.06,84.83l85.64 -62.18c-41.9,-52.64 -78.44,-104.48 -101.31,-154.29 25.44,-15.46 51.35,-30.21 77.72,-44.2l72.83 92.4c-2.84,-43.45 -4.63,-85.65 -5.05,-126.22 29,-13.58 58.5,-26.27 88.46,-38.05 -7.56,48.76 -5.25,121.3 -1.78,191.98l146.42 -82.43c-53.8,-38.99 -97.76,-78.64 -117.45,-119.93 31.44,-11.68 63.37,-22.35 95.75,-31.98 24,37.52 70.43,74.97 138.97,107.98l130.87 -4.73c8.69,-49.76 -18.24,-105.36 -57.81,-150.06 50.87,-7.47 102.55,-12.43 154.91,-14.77 36.91,37.98 64.71,78.86 73.94,125.64 5.49,-57.44 27.77,-97.37 61.09,-125.77 48.8,2.08 97.02,6.44 144.54,12.99 -35.46,21.23 -61.47,60.2 -80.6,112.1l114.02 27.7c28.32,-53.06 69.07,-86.19 114.44,-111.89 53.26,12.81 105.44,28.41 156.37,46.64 -61.67,29.69 -111.14,69.99 -150.24,119.31l209.83 117.57c64.35,-40.66 157.05,-56.58 202.22,-113.97 32.35,19.12 63.94,39.4 94.71,60.77 -35.54,40.34 -92.59,79.51 -160.23,112.66l67.38 56.76c50.71,-51.04 162.04,-22.62 225.6,-65.99 27.63,24.06 54.39,49.09 80.23,75.05l0.14 0.14c-70.61,61.92 -160.24,50.5 -234.7,82.02l104.95 131.76c49.01,-71.93 104.98,-132.16 179.19,-161.73 23.65,26.08 46.41,52.98 68.25,80.65 -58.17,17.18 -129.21,92.96 -201.17,186.51l27.44 33.58c77.62,-49.36 188.35,-62.07 290.1,-50.63 17.3,29.19 33.68,59.01 49.07,89.41 -120.44,-13.7 -226.26,-3.92 -304.94,49.38l67.62 203.31c99.43,-55.23 185.44,-126.98 252.26,-222.4 15.93,33.25 30.71,67.15 44.27,101.67 -86.52,93.58 -185.3,170.96 -294.36,234.77l6.35 125.57c133.85,-25.34 250.97,-82.22 346.26,-180.25 13.1,51.08 23.64,103.19 31.51,156.17l-0 -0.01z"/>
   <path class="fil1" d="M1502.32 1685.36l147.14 -72.29 145.85 59.43c-107.68,118.26 -40.78,237.5 141.28,249.81 98.29,6.64 245.39,-49.84 386.88,-61.22 51.41,-4.13 117.34,-3.15 175.13,10.59 75.78,18.01 110.19,61.7 166.26,113.35 59.51,54.82 189.08,122.26 313.53,122.21 -137.34,15.51 -231.95,-37.25 -306.35,-92.72 -40.22,-29.99 -73.04,-65.73 -110.58,-87.99 -25.69,-15.23 -54.12,-21.46 -86.6,-25.88 -68.96,-9.38 -147.56,-6.83 -218.27,7 -46.84,9.16 -86.95,26.68 -130.28,36.65 -68.67,15.81 -139.48,21.04 -209.91,34.71 204.8,37.9 340.22,85.78 450.98,137.21 147.01,68.26 155.99,142.77 415.25,208.5 -185.37,-21.73 -249.25,-68.54 -316.75,-114.84 -37.86,-25.97 -82.2,-50.87 -136.79,-73.34 -147.23,-60.61 -317.3,-115.41 -574.63,-147.94 1.29,21.18 27.65,40.51 63.89,80.45 44.72,49.28 106.17,123.71 169.7,214.74 25.56,36.62 73.07,49.3 111.59,70.58 71.39,39.45 148.76,79.3 363.85,118.16 -164.42,-8.01 -301.85,-46.69 -418.02,-109.52 48.61,54.5 72.6,119.14 121.2,173.64 53.39,59.86 131.4,109.59 184.79,169.45 -63.04,-39.47 -154.79,-94.62 -214.21,-149.69 -61.3,-56.82 -83.14,-133.18 -140.82,-194.12 -106.7,-112.73 -199.16,-241.69 -305.86,-354.43 -28.32,180.63 -45.21,355.96 -57.96,529.39 -5.78,-185.1 -20.84,-365.96 -54.27,-538.44 -55.23,107.46 -119.49,198.89 -191.99,275.72 -109.15,301.5 -289.39,494.43 -495.34,648.08 184.06,-174.64 342.13,-363.87 436.32,-588.98 -239.32,200.65 -526.16,240.23 -834.6,206.58 457.58,-11.43 851.55,-117.64 1018.36,-562.32 -87.4,2.24 -189.8,-11.69 -276.6,-39.77 -99.9,-32.32 -184.21,-79.43 -284.8,-76.86 -69.7,1.78 -166.7,8.17 -223.85,43.9 -38.2,23.89 -57.17,67.62 -92.45,91.07 -58.8,39.09 -179.26,50.27 -260.42,-5.2 110.47,22.66 182.01,21.62 233.14,-8.85 42.37,-25.24 67.5,-75.55 118.36,-105.53 79.33,-46.74 222.73,-62.16 344.56,-42.39 155.69,41.56 250.01,88.66 330.8,76.68 159.7,-23.69 200.75,-162.12 102.48,-225.59l-0 -0z"/>
   <path class="fil5" d="M492.47 1541.98c-7.99,-55.36 -12.21,-111.94 -12.21,-169.52 0,-646.3 521.31,-1170.43 1164.14,-1170.43 642.82,0 1164.13,524.13 1164.13,1170.43 0,57.58 -4.21,114.16 -12.21,169.52 -425.07,129.81 -878.66,-229.87 -956.27,97.36 -128.55,-28.54 -120.41,-161.63 -106.49,-403.41 1.39,-7.32 15.45,-1.22 16.96,-8.66 356.5,287.78 662.06,-273.38 195.65,-374.33 245.83,-158.02 58.32,-400.65 -141.23,-325.68 74.94,-358.14 -417.47,-288.93 -327.64,-1.08 -232.13,-71.15 -355.88,208.72 -129.75,326.77 -464.61,87.54 -181.1,664.7 202.13,372.98 39.66,295.61 -9.15,396.42 -93.92,418.04 -93.08,-327.26 -458.09,-0.38 -963.3,-101.98l-0 0z"/>
   <path class="fil6" d="M1549.65 1690.8c-247.13,265.8 -325.61,100.61 -589.55,104.79 -274.59,4.35 -384.81,222.49 -832.83,99.02 -8.32,-49.56 -14.26,-99.91 -17.79,-150.94 216.58,153.41 375.92,52.45 615.97,-0.21 60.45,-13.26 156.76,-21.91 242.6,-11.44 80.33,9.8 159.24,35 228.96,42.5 109.89,11.82 191.81,-19.15 193.77,-91.24 117.68,-8.75 196.03,-66.27 204.27,-210.75l-2.17 -361.91 -280.32 0.47c-3.8,-7.57 -3.49,-14.15 5.9,-18.55 171.47,-39.66 285.7,-140.14 274,-374.45 -136.31,35.77 -214.05,-0.4 -243.25,-96.17 159.6,59.07 268.12,44.28 275.67,-116.51 -45.49,7.65 -82.99,-12.98 -115.55,-51.17 59.05,11.62 106.9,-4.53 139.24,-51.33 21.08,39.28 62.26,64.35 133.32,52.4 -25.87,32.78 -65,47.99 -114.13,50.21 3.73,151.13 109.62,176.18 282.66,111.09 -40.7,107.43 -129.62,131.41 -251.52,98.29 -3.11,205.56 78,342.32 282.21,378.5 5.02,6.19 7.57,13.02 6.54,20.79l-285.64 -2.61 -2.08 363.46c13.55,134.55 83.98,192.34 185.65,207.96 114.41,149.57 343.8,127.26 552.62,32.7 194.62,-88.13 381.96,163.01 742.95,17.24 -3.05,49.45 -8.37,98.28 -15.94,146.37 -348.85,83.99 -464.7,-118.57 -669.75,-100.24 -148.24,13.26 -268.25,78.94 -382.77,86.44 -138.21,9.05 -254.25,-77.05 -363.7,-193.54 -84.12,120.18 -32.46,224.25 176.68,285.87 -57.23,-10.19 -114.78,-24.65 -178.24,-56.8 -25.26,-12.8 -42.22,-22.81 -53.18,-15.34 -13.09,8.92 -22.91,54.97 -27,72.02 -15.67,65.35 -21.74,161.58 -25.38,265.6 -0.74,-100.3 -8.83,-224.46 -22.53,-291.04 -3.81,-18.52 -8.91,-40.8 -23.1,-48.3 -24.49,-12.95 -60.92,23.04 -81.98,31.5 -40.98,16.46 -71.25,25.29 -117.66,27.69 53.38,-15.71 152.72,-57.15 178.4,-110.79 24.13,-50.39 14.44,-109.1 -25.34,-141.55l0 0z"/>
   <path class="fil7" d="M492.47 1541.98c-86.63,-854.37 534.59,-1326.7 1154.56,-1330.46 603.77,-3.66 1217.06,435.29 1149.3,1330.46"/>
   <path class="fil8" d="M478.74 1543.45c-5.21,-51.41 -7.88,-101.61 -8.15,-150.57 -1.99,-356.4 123.91,-638.53 318.34,-839.1 194.22,-200.37 456.83,-319.16 728.54,-349.13 42.87,-4.73 86.12,-7.24 129.5,-7.5 37,-0.22 73.71,1.16 109.98,4.14 269.65,22.2 533.08,132.36 729.72,331.67 196.71,199.37 326.44,487.7 328.55,866.09 0.26,46.99 -1.41,95.02 -5.12,144.06l-27.56 -2.25c3.7,-48.93 5.37,-96.16 5.12,-141.7 -2.06,-369.81 -128.5,-651.25 -320.23,-845.57 -191.79,-194.39 -449.07,-301.85 -712.65,-323.55 -36.16,-2.98 -72.12,-4.36 -107.71,-4.14 -42.19,0.26 -84.54,2.73 -126.8,7.39 -265.6,29.3 -522.22,145.32 -711.9,341.01 -189.48,195.47 -312.17,470.64 -310.23,818.48 0.27,47.72 2.9,96.98 8.05,147.75l-27.45 2.93 -0 0z"/>
   <path class="fil9" d="M1390.29 1634.84c72.72,7.48 119.28,-18.8 143.19,-82.8 24.18,-64.73 26.28,-167.27 9.64,-311.32 -131.72,87.75 -247.31,85.13 -326.99,38.9 -44.18,-25.63 -77.3,-64.68 -96.05,-109.25 -18.8,-44.67 -23.17,-94.91 -9.83,-142.8 21.28,-76.39 87.52,-146.53 212.01,-177.77 -67.67,-37.74 -98.89,-93.11 -102.85,-148.6 -1.91,-26.86 2.61,-53.72 12.52,-78.58 9.86,-24.73 25.1,-47.52 44.66,-66.4 45.55,-43.94 114.45,-66.54 193.32,-42.81 -23.77,-84.53 -1.03,-148.39 42.37,-189.06 33.52,-31.41 79.4,-48.72 125.58,-50.81 46.24,-2.1 92.94,11.05 128.01,40.54 45.79,38.51 71.69,104.35 50.93,199.67 77.18,-19.42 147.64,0.31 195.27,40.02 22.31,18.59 39.64,41.55 50.37,66.93 10.83,25.61 14.99,53.68 10.86,82.25 -7.26,50.18 -40.1,101.7 -107.42,143.62 118.61,20.55 185.2,83.69 210.17,156.96 16.93,49.67 14.62,103.91 -3.66,152.67 -18.23,48.64 -52.4,91.89 -99.2,119.73 -78.7,46.81 -192.96,50.02 -326.74,-38.38 -11.54,132.81 -14.89,232.21 4.24,298.41 18.99,65.72 61.24,98.29 142.02,98.38l0 17.25c-89.55,-0.1 -136.55,-36.74 -157.91,-110.69 -20.55,-71.12 -16.29,-177.11 -3.56,-319.15l1.29 -14.42 11.51 8c132.63,92.13 244.92,90.82 320.97,45.59 43.36,-25.79 75.03,-65.89 91.94,-111.01 16.87,-45 19.03,-94.96 3.46,-140.63 -24.7,-72.46 -94.36,-134.36 -221.21,-149.11l-2.85 -16.27c76.84,-41.04 113.26,-93.25 120.54,-143.51 3.65,-25.23 -0.04,-50.05 -9.63,-72.72 -9.68,-22.9 -25.34,-43.63 -45.5,-60.44 -46.58,-38.83 -117.13,-56.87 -194.06,-33.05l-14.21 4.4 3.86 -14.91c24.69,-95.31 1.4,-159.74 -41.86,-196.12 -31.82,-26.76 -74.5,-38.68 -116.93,-36.76 -42.5,1.93 -84.6,17.74 -115.2,46.41 -41.47,38.87 -61.74,101.92 -32.76,186.77l5.87 17.18 -16.47 -6.15c-78.86,-29.46 -147.83,-8.94 -192.21,33.87 -17.75,17.13 -31.6,37.85 -40.58,60.38 -8.93,22.4 -13,46.58 -11.28,70.73 3.94,55.21 38.44,110.58 114.89,145.04l-1.72 16.4c-132.79,26.51 -201.98,95.57 -222.98,170.94 -12.22,43.88 -8.18,90.01 9.12,131.1 17.34,41.2 47.99,77.32 88.92,101.07 77.04,44.7 190.6,45.49 320.92,-45.79l11.12 -7.79 1.69 13.88c18.73,154.17 17,263.85 -8.99,333.42 -27.02,72.34 -79.13,102.09 -160.24,93.75l1.62 -17.18 0 -0z"/>
  </g>
  <polygon class="fil10" points="545.19,3628.85 545.19,3408.69 589.77,3408.69 589.77,3506.21 679.61,3408.69 739.37,3408.69 656.29,3494.43 743.67,3628.85 686.17,3628.85 625.6,3525.48 589.77,3562.28 589.77,3628.85 "/>
  <polygon id="1" class="fil10" points="766.63,3628.85 766.63,3408.69 929.6,3408.69 929.6,3445.89 811.22,3445.89 811.22,3494.79 921.3,3494.79 921.3,3531.99 811.22,3531.99 811.22,3591.65 933.91,3591.65 933.91,3628.85 "/>
  <polygon id="2" class="fil10" points="971.11,3628.85 971.11,3408.69 1037.89,3408.69 1077.35,3558.85 1116.35,3408.69 1183.28,3408.69 1183.28,3628.85 1142.08,3628.85 1141.93,3455.53 1098.52,3628.85 1055.67,3628.85 1012.47,3455.53 1012.32,3628.85 "/>
  <polygon id="3" class="fil10" points="1227.87,3628.85 1227.87,3408.69 1390.84,3408.69 1390.84,3445.89 1272.46,3445.89 1272.46,3494.79 1382.54,3494.79 1382.54,3531.99 1272.46,3531.99 1272.46,3591.65 1395.14,3591.65 1395.14,3628.85 "/>
  <polygon id="4" class="fil10" points="1432.96,3628.85 1432.96,3408.69 1476.12,3408.69 1566.72,3556.23 1566.72,3408.69 1607.93,3408.69 1607.93,3628.85 1563.39,3628.85 1474.17,3484.13 1474.17,3628.85 "/>
  <polygon id="5" class="fil10" points="1704.53,3628.85 1704.53,3445.89 1639.34,3445.89 1639.34,3408.69 1814,3408.69 1814,3445.89 1749.12,3445.89 1749.12,3628.85 "/>
  <polygon id="6" class="fil10" points="1842.85,3628.85 1842.85,3408.69 2005.82,3408.69 2005.82,3445.89 1887.44,3445.89 1887.44,3494.79 1997.52,3494.79 1997.52,3531.99 1887.44,3531.99 1887.44,3591.65 2010.13,3591.65 2010.13,3628.85 "/>
  <path id="7" class="fil10" d="M2047.95 3628.85l0 -220.16 93.63 0c23.52,0 40.64,2 51.3,5.94 10.71,3.95 19.22,10.97 25.62,21.06 6.4,10.15 9.63,21.68 9.63,34.69 0,16.55 -4.82,30.19 -14.5,40.95 -9.69,10.76 -24.14,17.53 -43.41,20.35 9.58,5.59 17.48,11.74 23.68,18.45 6.25,6.71 14.66,18.65 25.21,35.77l26.86 42.95 -53.15 0 -31.88 -48.07c-11.43,-17.07 -19.27,-27.83 -23.52,-32.29 -4.2,-4.41 -8.66,-7.48 -13.38,-9.12 -4.76,-1.64 -12.25,-2.46 -22.5,-2.46l-9.02 0 0 91.94 -44.59 0zm44.59 -126.99l32.9 0c21.32,0 34.59,-0.92 39.92,-2.71 5.28,-1.79 9.48,-4.92 12.45,-9.33 3.02,-4.41 4.51,-9.94 4.51,-16.55 0,-7.43 -2,-13.37 -5.95,-17.99 -3.95,-4.56 -9.53,-7.43 -16.71,-8.61 -3.64,-0.51 -14.45,-0.77 -32.44,-0.77l-34.69 0 0 55.96z"/>
  <polygon id="8" class="fil10" points="2268.47,3628.85 2268.47,3408.69 2313.06,3408.69 2313.06,3628.85 "/>
  <path id="9" class="fil10" d="M2553.77 3628.85l-48.02 0 -19.01 -50.12 -88.3 0 -18.3 50.12 -47.15 0 85.48 -220.16 47.1 0 88.2 220.16zm-81.48 -87.33l-30.6 -81.48 -29.72 81.48 60.32 0z"/>
  <polygon id="10" class="fil10" points="2577.5,3628.85 2577.5,3408.69 2620.65,3408.69 2711.26,3556.23 2711.26,3408.69 2752.46,3408.69 2752.46,3628.85 2707.93,3628.85 2618.7,3484.13 2618.7,3628.85 "/>
  <polygon id="11" class="fil10" points="110.24,3972.37 110.24,3754.05 154.83,3754.05 154.83,3935.16 265.21,3935.16 265.21,3972.37 "/>
  <polygon id="12" class="fil10" points="295.3,3972.37 295.3,3752.21 339.88,3752.21 339.88,3972.37 "/>
  <polygon id="13" class="fil10" points="382.26,3972.37 382.26,3752.21 425.42,3752.21 516.02,3899.75 516.02,3752.21 557.23,3752.21 557.23,3972.37 512.69,3972.37 423.47,3827.65 423.47,3972.37 "/>
  <path id="14" class="fil10" d="M706.72 3891.5l0 -37.21 95.63 0 0 87.84c-9.28,9.07 -22.76,17.01 -40.44,23.93 -17.63,6.87 -35.51,10.3 -53.66,10.3 -23.01,0 -43.05,-4.82 -60.17,-14.5 -17.07,-9.69 -29.93,-23.57 -38.54,-41.56 -8.61,-17.99 -12.91,-37.62 -12.91,-58.78 0,-22.96 4.82,-43.36 14.4,-61.24 9.64,-17.83 23.68,-31.57 42.18,-41.1 14.15,-7.33 31.67,-10.97 52.68,-10.97 27.31,0 48.69,5.74 64.06,17.22 15.32,11.53 25.22,27.37 29.62,47.66l-44.28 8.3c-3.08,-10.81 -8.92,-19.37 -17.48,-25.67 -8.51,-6.25 -19.17,-9.38 -31.98,-9.38 -19.37,0 -34.8,6.15 -46.23,18.5 -11.43,12.35 -17.17,30.65 -17.17,54.89 0,26.19 5.79,45.82 17.37,58.88 11.63,13.07 26.8,19.63 45.61,19.63 9.28,0 18.6,-1.84 27.93,-5.48 9.38,-3.64 17.37,-8.1 24.09,-13.32l0 -27.93 -50.74 0z"/>
  <polygon id="15" class="fil10" points="844.12,3972.37 844.12,3752.21 888.7,3752.21 888.7,3849.73 978.54,3752.21 1038.3,3752.21 955.23,3837.95 1042.6,3972.37 985.1,3972.37 924.53,3869 888.7,3905.8 888.7,3972.37 "/>
  <path id="16" class="fil10" d="M1065.56 3752.21l44.59 0 0 119.31c0,18.96 0.56,31.21 1.64,36.8 1.9,9.02 6.35,16.3 13.43,21.73 7.12,5.48 16.81,8.2 29.11,8.2 12.45,0 21.88,-2.56 28.24,-7.74 6.35,-5.18 10.15,-11.48 11.43,-19.01 1.28,-7.53 1.95,-19.99 1.95,-37.41l0 -121.87 44.59 0 0 115.77c0,26.44 -1.18,45.15 -3.59,56.07 -2.41,10.92 -6.82,20.14 -13.27,27.67 -6.41,7.53 -15.02,13.48 -25.78,17.94 -10.81,4.46 -24.86,6.71 -42.23,6.71 -20.96,0 -36.85,-2.41 -47.66,-7.28 -10.81,-4.87 -19.37,-11.17 -25.67,-18.96 -6.3,-7.79 -10.4,-15.89 -12.4,-24.45 -2.92,-12.61 -4.36,-31.26 -4.36,-55.91l0 -117.56z"/>
  <polygon id="17" class="fil10" points="1287.62,3972.37 1287.62,3752.21 1330.78,3752.21 1421.38,3899.75 1421.38,3752.21 1462.59,3752.21 1462.59,3972.37 1418.05,3972.37 1328.83,3827.65 1328.83,3972.37 "/>
  <path id="18" class="fil10" d="M1612.08 3891.5l0 -37.21 95.63 0 0 87.84c-9.28,9.07 -22.76,17.01 -40.44,23.93 -17.63,6.87 -35.51,10.3 -53.66,10.3 -23.01,0 -43.05,-4.82 -60.17,-14.5 -17.07,-9.69 -29.93,-23.57 -38.54,-41.56 -8.61,-17.99 -12.91,-37.62 -12.91,-58.78 0,-22.96 4.82,-43.36 14.4,-61.24 9.64,-17.83 23.68,-31.57 42.18,-41.1 14.15,-7.33 31.67,-10.97 52.68,-10.97 27.31,0 48.69,5.74 64.06,17.22 15.32,11.53 25.22,27.37 29.62,47.66l-44.28 8.3c-3.08,-10.81 -8.92,-19.37 -17.48,-25.67 -8.51,-6.25 -19.17,-9.38 -31.98,-9.38 -19.37,0 -34.8,6.15 -46.23,18.5 -11.43,12.35 -17.17,30.65 -17.17,54.89 0,26.19 5.79,45.82 17.37,58.88 11.63,13.07 26.8,19.63 45.61,19.63 9.28,0 18.6,-1.84 27.93,-5.48 9.38,-3.64 17.37,-8.1 24.09,-13.32l0 -27.93 -50.74 0z"/>
  <path id="19" class="fil10" d="M1947.19 3972.37l-48.02 0 -19.01 -50.12 -88.3 0 -18.3 50.12 -47.15 0 85.48 -220.16 47.1 0 88.2 220.16zm-81.48 -87.33l-30.6 -81.48 -29.72 81.48 60.32 0z"/>
  <polygon id="20" class="fil10" points="1970.92,3972.37 1970.92,3752.21 2014.07,3752.21 2104.68,3899.75 2104.68,3752.21 2145.89,3752.21 2145.89,3972.37 2101.35,3972.37 2012.13,3827.65 2012.13,3972.37 "/>
  <polygon id="21" class="fil10" points="2278.41,3972.37 2278.41,3752.21 2323,3752.21 2323,3838.92 2409.71,3838.92 2409.71,3752.21 2454.3,3752.21 2454.3,3972.37 2409.71,3972.37 2409.71,3876.13 2323,3876.13 2323,3972.37 "/>
  <polygon id="22" class="fil10" points="2498.94,3972.37 2498.94,3752.21 2543.52,3752.21 2543.52,3972.37 "/>
  <path id="23" class="fil10" d="M2585.91 3752.21l81.08 0c18.3,0 32.24,1.38 41.82,4.2 12.86,3.79 23.93,10.56 33.11,20.29 9.22,9.69 16.19,21.57 21.01,35.67 4.76,14.04 7.17,31.42 7.17,52.02 0,18.14 -2.26,33.72 -6.77,46.84 -5.48,16.04 -13.32,29.01 -23.52,38.9 -7.69,7.53 -18.09,13.38 -31.16,17.58 -9.79,3.13 -22.86,4.66 -39.26,4.66l-83.48 0 0 -220.16zm44.59 37.21l0 145.75 33.05 0c12.35,0 21.27,-0.72 26.75,-2.1 7.23,-1.79 13.17,-4.87 17.88,-9.17 4.77,-4.31 8.61,-11.38 11.58,-21.22 3.02,-9.84 4.51,-23.32 4.51,-40.33 0,-17.01 -1.49,-30.03 -4.51,-39.15 -2.97,-9.12 -7.17,-16.19 -12.56,-21.32 -5.38,-5.07 -12.2,-8.56 -20.5,-10.35 -6.15,-1.38 -18.3,-2.1 -36.33,-2.1l-19.88 0z"/>
  <path id="24" class="fil10" d="M2807.97 3752.21l44.59 0 0 119.31c0,18.96 0.56,31.21 1.64,36.8 1.9,9.02 6.35,16.3 13.43,21.73 7.12,5.48 16.81,8.2 29.11,8.2 12.45,0 21.88,-2.56 28.24,-7.74 6.35,-5.18 10.15,-11.48 11.43,-19.01 1.28,-7.53 1.95,-19.99 1.95,-37.41l0 -121.87 44.59 0 0 115.77c0,26.44 -1.18,45.15 -3.59,56.07 -2.41,10.92 -6.82,20.14 -13.27,27.67 -6.41,7.53 -15.02,13.48 -25.78,17.94 -10.81,4.46 -24.86,6.71 -42.23,6.71 -20.96,0 -36.85,-2.41 -47.66,-7.28 -10.81,-4.87 -19.37,-11.17 -25.67,-18.96 -6.3,-7.79 -10.4,-15.89 -12.4,-24.45 -2.92,-12.61 -4.36,-31.26 -4.36,-55.91l0 -117.56z"/>
  <path id="25" class="fil10" d="M3030.03 3972.37l0 -220.16 71.29 0c27.01,0 44.59,1.08 52.79,3.28 12.61,3.33 23.17,10.5 31.67,21.57 8.51,11.07 12.76,25.37 12.76,42.9 0,13.53 -2.46,24.86 -7.33,34.08 -4.92,9.22 -11.12,16.45 -18.65,21.73 -7.53,5.23 -15.22,8.71 -23.01,10.4 -10.61,2.1 -25.93,3.18 -46.02,3.18l-28.9 0 0 83.02 -44.59 0zm44.59 -182.96l0 62.73 24.24 0c17.47,0 29.11,-1.18 35,-3.48 5.89,-2.31 10.51,-5.89 13.84,-10.86 3.33,-4.92 5.02,-10.61 5.02,-17.17 0,-8.05 -2.36,-14.66 -7.02,-19.88 -4.72,-5.23 -10.61,-8.51 -17.84,-9.84 -5.28,-0.97 -15.89,-1.49 -31.88,-1.49l-21.37 0z"/>
  <path id="26" class="fil10" d="M333.99 4095.73l81.08 0c18.3,0 32.24,1.38 41.82,4.2 12.86,3.79 23.93,10.56 33.11,20.29 9.22,9.69 16.19,21.57 21.01,35.67 4.76,14.04 7.17,31.42 7.17,52.02 0,18.14 -2.26,33.72 -6.77,46.84 -5.48,16.04 -13.32,29.01 -23.52,38.9 -7.69,7.53 -18.09,13.38 -31.16,17.58 -9.79,3.13 -22.86,4.66 -39.26,4.66l-83.48 0 0 -220.16zm44.59 37.21l0 145.75 33.05 0c12.35,0 21.27,-0.72 26.75,-2.1 7.23,-1.79 13.17,-4.87 17.88,-9.17 4.77,-4.31 8.61,-11.38 11.58,-21.22 3.02,-9.84 4.51,-23.32 4.51,-40.33 0,-17.01 -1.49,-30.03 -4.51,-39.15 -2.97,-9.12 -7.17,-16.19 -12.56,-21.32 -5.38,-5.07 -12.2,-8.56 -20.5,-10.35 -6.15,-1.38 -18.3,-2.1 -36.33,-2.1l-19.88 0z"/>
  <path id="27" class="fil10" d="M754.38 4315.89l-48.02 0 -19.01 -50.12 -88.3 0 -18.3 50.12 -47.15 0 85.48 -220.16 47.1 0 88.2 220.16zm-81.48 -87.33l-30.6 -81.48 -29.72 81.48 60.32 0z"/>
  <polygon id="28" class="fil10" points="778.11,4315.89 778.11,4095.73 821.26,4095.73 911.87,4243.27 911.87,4095.73 953.07,4095.73 953.07,4315.89 908.54,4315.89 819.31,4171.16 819.31,4315.89 "/>
  <polygon id="29" class="fil10" points="1086.22,4315.89 1086.22,4095.73 1130.8,4095.73 1130.8,4193.25 1220.64,4095.73 1280.4,4095.73 1197.32,4181.46 1284.7,4315.89 1227.2,4315.89 1166.63,4212.52 1130.8,4249.32 1130.8,4315.89 "/>
  <polygon id="30" class="fil10" points="1307.66,4315.89 1307.66,4095.73 1470.63,4095.73 1470.63,4132.93 1352.25,4132.93 1352.25,4181.82 1462.33,4181.82 1462.33,4219.03 1352.25,4219.03 1352.25,4278.68 1474.94,4278.68 1474.94,4315.89 "/>
  <polygon id="31" class="fil10" points="1512.76,4315.89 1512.76,4095.73 1557.35,4095.73 1557.35,4182.44 1644.06,4182.44 1644.06,4095.73 1688.65,4095.73 1688.65,4315.89 1644.06,4315.89 1644.06,4219.65 1557.35,4219.65 1557.35,4315.89 "/>
  <path id="32" class="fil10" d="M1734.82 4095.73l44.59 0 0 119.31c0,18.96 0.56,31.21 1.64,36.8 1.9,9.02 6.35,16.3 13.43,21.73 7.12,5.48 16.81,8.2 29.11,8.2 12.45,0 21.88,-2.56 28.24,-7.74 6.35,-5.18 10.15,-11.48 11.43,-19.01 1.28,-7.53 1.95,-19.99 1.95,-37.41l0 -121.87 44.59 0 0 115.77c0,26.44 -1.18,45.15 -3.59,56.07 -2.41,10.92 -6.82,20.14 -13.27,27.67 -6.41,7.53 -15.02,13.48 -25.78,17.94 -10.81,4.46 -24.86,6.71 -42.23,6.71 -20.96,0 -36.85,-2.41 -47.66,-7.28 -10.81,-4.87 -19.37,-11.17 -25.67,-18.96 -6.3,-7.79 -10.4,-15.89 -12.4,-24.45 -2.92,-12.61 -4.36,-31.26 -4.36,-55.91l0 -117.56z"/>
  <polygon id="33" class="fil10" points="2006.39,4315.89 2006.39,4132.93 1941.2,4132.93 1941.2,4095.73 2115.85,4095.73 2115.85,4132.93 2050.97,4132.93 2050.97,4315.89 "/>
  <path id="34" class="fil10" d="M2320.23 4315.89l-48.02 0 -19.01 -50.12 -88.3 0 -18.3 50.12 -47.15 0 85.48 -220.16 47.1 0 88.2 220.16zm-81.48 -87.33l-30.6 -81.48 -29.72 81.48 60.32 0z"/>
  <polygon id="35" class="fil10" points="2343.96,4315.89 2343.96,4095.73 2387.11,4095.73 2477.72,4243.27 2477.72,4095.73 2518.92,4095.73 2518.92,4315.89 2474.39,4315.89 2385.17,4171.16 2385.17,4315.89 "/>
  <path id="36" class="fil10" d="M2764.35 4315.89l-48.02 0 -19.01 -50.12 -88.3 0 -18.3 50.12 -47.15 0 85.48 -220.16 47.1 0 88.2 220.16zm-81.48 -87.33l-30.6 -81.48 -29.72 81.48 60.32 0z"/>
  <polygon id="37" class="fil10" points="2788.08,4315.89 2788.08,4095.73 2831.23,4095.73 2921.84,4243.27 2921.84,4095.73 2963.05,4095.73 2963.05,4315.89 2918.51,4315.89 2829.29,4171.16 2829.29,4315.89 "/>
 </g>
</svg>
